<svg width="28" height="28" viewBox="0 0 28 28" fill="none" xmlns="http://www.w3.org/2000/svg">
<g id="pin 1" clip-path="url(#clip0_1_283)">
<g id="Group">
<g id="Group_2">
<path id="Vector" d="M24.1469 7.33675C23.1487 4.11172 20.5557 1.49738 17.3799 0.513827C13.9979 -0.533493 10.4722 0.0350376 7.70674 2.07362C6.38166 3.0504 5.28211 4.33878 4.52704 5.79932C3.74665 7.30886 3.3342 9.00833 3.3342 10.7141C3.3342 13.0409 4.07024 15.2522 5.4628 17.1087L14.0009 27.9997L22.5285 17.1226L22.5391 17.1087C24.6231 14.3301 25.2091 10.7683 24.1469 7.33675ZM21.2313 16.1174L14.0009 25.3408L6.77049 16.1174C5.59607 14.5484 4.97526 12.6802 4.97526 10.7141C4.97526 7.84119 6.36038 5.1049 8.6805 3.3946C11.0219 1.66861 14.0158 1.19004 16.8945 2.08144C19.5606 2.90712 21.7389 5.10676 22.5794 7.82194C23.4833 10.7424 22.9919 13.7655 21.2313 16.1174Z" fill="#FF6138"/>
</g>
</g>
<g id="Group_3">
<g id="Group_4">
<path id="Vector_2" d="M14.001 4.97083C10.834 4.97083 8.25735 7.54743 8.25735 10.7144C8.25735 13.8814 10.834 16.458 14.001 16.458C17.168 16.458 19.7446 13.8814 19.7446 10.7144C19.7446 7.54743 17.168 4.97083 14.001 4.97083ZM14.001 14.817C11.7388 14.817 9.89836 12.9766 9.89836 10.7144C9.89836 8.45229 11.7388 6.61183 14.001 6.61183C16.2632 6.61183 18.1036 8.45223 18.1036 10.7144C18.1036 12.9766 16.2631 14.817 14.001 14.817Z" fill="#FF6138"/>
</g>
</g>
</g>
<defs>
<clipPath id="clip0_1_283">
<rect width="28" height="28" fill="white"/>
</clipPath>
</defs>
</svg>
