<svg width="25" height="25" viewBox="0 0 25 25" fill="none" xmlns="http://www.w3.org/2000/svg">
<g id="phone-call (2) 2" clip-path="url(#clip0_1_310)">
<g id="Group">
<g id="Group_2">
<path id="Vector" d="M19.7581 15.487C19.2463 14.9541 18.6289 14.6691 17.9747 14.6691C17.3257 14.6691 16.7031 14.9488 16.1701 15.4817L14.5028 17.1438C14.3656 17.0699 14.2284 17.0013 14.0965 16.9327C13.9065 16.8377 13.7272 16.748 13.5741 16.6531C12.0123 15.6611 10.593 14.3684 9.23164 12.6957C8.57209 11.8621 8.12887 11.1603 7.80701 10.448C8.23967 10.0523 8.64068 9.6407 9.03114 9.24496C9.17888 9.09722 9.32662 8.94421 9.47435 8.79647C10.5824 7.68842 10.5824 6.25323 9.47435 5.14518L8.03389 3.70472C7.87032 3.54115 7.70148 3.37231 7.54318 3.20346C7.2266 2.87632 6.89418 2.53863 6.55122 2.22205C6.0394 1.71551 5.42734 1.44641 4.78362 1.44641C4.13989 1.44641 3.51728 1.71551 2.98963 2.22205C2.98436 2.22732 2.98436 2.22732 2.97908 2.2326L1.1851 4.04241C0.509715 4.71779 0.124537 5.54092 0.0401138 6.49595C-0.0865203 8.03666 0.367252 9.47185 0.715496 10.4111C1.57028 12.7169 2.84717 14.8538 4.75196 17.1438C7.06303 19.9033 9.8437 22.0825 13.0201 23.6179C14.2337 24.1931 15.8535 24.8737 17.6634 24.9898C17.7742 24.9951 17.8902 25.0004 17.9958 25.0004C19.2146 25.0004 20.2383 24.5624 21.0403 23.6918C21.0455 23.6813 21.0561 23.676 21.0614 23.6654C21.3358 23.333 21.6523 23.0323 21.9847 22.7104C22.2116 22.4941 22.4438 22.2672 22.6707 22.0297C23.1931 21.4863 23.4674 20.8531 23.4674 20.2041C23.4674 19.5498 23.1878 18.9219 22.6549 18.3943L19.7581 15.487ZM21.6471 21.043C21.6418 21.043 21.6418 21.0483 21.6471 21.043C21.4413 21.2647 21.2302 21.4652 21.0033 21.6868C20.6604 22.0139 20.3121 22.3569 19.985 22.7421C19.4521 23.3119 18.8242 23.581 18.0011 23.581C17.9219 23.581 17.8375 23.581 17.7583 23.5757C16.1912 23.4755 14.7349 22.8634 13.6427 22.341C10.6563 20.8953 8.03389 18.8428 5.85473 16.2415C4.05547 14.0729 2.85245 12.0679 2.05571 9.91507C1.565 8.60124 1.3856 7.57762 1.46475 6.61203C1.51751 5.99469 1.75495 5.48288 2.19289 5.04493L3.99215 3.24567C4.2507 3.00296 4.52507 2.87105 4.79417 2.87105C5.12658 2.87105 5.39568 3.07155 5.56453 3.2404C5.5698 3.24567 5.57508 3.25095 5.58036 3.25622C5.90222 3.55698 6.20825 3.86829 6.53011 4.2007C6.69368 4.36955 6.86253 4.5384 7.03137 4.71252L8.47184 6.15298C9.03114 6.71228 9.03114 7.22937 8.47184 7.78867C8.31882 7.94169 8.17108 8.0947 8.01806 8.24244C7.57484 8.69622 7.15273 9.11833 6.69368 9.52989C6.68313 9.54045 6.67258 9.54572 6.6673 9.55627C6.21353 10.01 6.29795 10.4533 6.39292 10.754C6.3982 10.7699 6.40348 10.7857 6.40875 10.8015C6.78338 11.7091 7.31102 12.5638 8.11304 13.5822L8.11831 13.5875C9.57461 15.3814 11.11 16.7797 12.8038 17.8508C13.0201 17.988 13.2417 18.0988 13.4528 18.2043C13.6427 18.2993 13.8221 18.389 13.9751 18.484C13.9962 18.4945 14.0174 18.5104 14.0385 18.5209C14.2179 18.6106 14.3867 18.6528 14.5608 18.6528C14.9988 18.6528 15.2731 18.3785 15.3628 18.2888L17.1674 16.4842C17.3468 16.3048 17.6317 16.0885 17.9641 16.0885C18.2913 16.0885 18.5604 16.2943 18.7239 16.4737C18.7292 16.4789 18.7292 16.4789 18.7345 16.4842L21.6418 19.3915C22.1853 19.9297 22.1853 20.4837 21.6471 21.043Z" fill="#FF6138"/>
<path id="Vector_2" d="M13.5108 5.94834C14.8932 6.18051 16.149 6.83478 17.1516 7.8373C18.1541 8.83982 18.8031 10.0956 19.0405 11.478C19.0985 11.8263 19.3993 12.069 19.7423 12.069C19.7845 12.069 19.8214 12.0637 19.8636 12.0584C20.2541 11.9951 20.5126 11.6258 20.4493 11.2353C20.1644 9.56269 19.3729 8.03781 18.1646 6.82951C16.9563 5.62121 15.4314 4.82974 13.7588 4.54481C13.3684 4.4815 13.0043 4.74004 12.9357 5.12522C12.8671 5.5104 13.1204 5.88503 13.5108 5.94834Z" fill="#FF6138"/>
<path id="Vector_3" d="M24.971 11.0283C24.5014 8.27398 23.2034 5.76768 21.2089 3.77319C19.2144 1.77871 16.7081 0.480705 13.9538 0.0111038C13.5687 -0.0574897 13.2046 0.206331 13.136 0.59151C13.0727 0.981965 13.3312 1.34604 13.7217 1.41463C16.1805 1.83147 18.423 2.99756 20.2064 4.77571C21.9898 6.55914 23.1506 8.80162 23.5675 11.2604C23.6255 11.6087 23.9263 11.8514 24.2692 11.8514C24.3115 11.8514 24.3484 11.8461 24.3906 11.8408C24.7758 11.7828 25.0396 11.4135 24.971 11.0283Z" fill="#FF6138"/>
</g>
</g>
</g>
<defs>
<clipPath id="clip0_1_310">
<rect width="25" height="25" fill="white"/>
</clipPath>
</defs>
</svg>
