<svg width="13" height="13" viewBox="0 0 13 13" fill="none" xmlns="http://www.w3.org/2000/svg">
<g id="linkedin (2) 1" clip-path="url(#clip0_1_107)">
<path id="Vector" d="M12.6407 12.0448V12.0443H12.6437V7.63572C12.6437 5.479 12.1794 3.81763 9.65802 3.81763C8.44593 3.81763 7.63252 4.48278 7.30045 5.11336H7.26539V4.01897H4.87476V12.0443H7.36406V8.07047C7.36406 7.02416 7.5624 6.01242 8.85814 6.01242C10.1348 6.01242 10.1539 7.20648 10.1539 8.13759V12.0448H12.6407Z" fill="#131839"/>
<path id="Vector_2" d="M0.821228 4.01929H3.31353V12.0446H0.821228V4.01929Z" fill="#131839"/>
<path id="Vector_3" d="M2.0663 0.0240479C1.26942 0.0240479 0.622803 0.670665 0.622803 1.46754C0.622803 2.26442 1.26942 2.92456 2.0663 2.92456C2.86317 2.92456 3.50979 2.26442 3.50979 1.46754C3.50929 0.670665 2.86267 0.0240479 2.0663 0.0240479V0.0240479Z" fill="#131839"/>
</g>
<defs>
<clipPath id="clip0_1_107">
<rect width="12.0208" height="12.0208" fill="white" transform="translate(0.622803 0.0240479)"/>
</clipPath>
</defs>
</svg>
