<svg width="13" height="13" viewBox="0 0 13 13" fill="none" xmlns="http://www.w3.org/2000/svg">
<g id="twitter (4) 1" clip-path="url(#clip0_1_98)">
<g id="XMLID_826_">
<path id="XMLID_827_" d="M12.4403 2.91767C12.2515 3.00142 12.0573 3.07211 11.8589 3.1295C12.0938 2.86388 12.2729 2.55134 12.3822 2.20933C12.4067 2.13267 12.3813 2.04876 12.3183 1.99862C12.2554 1.94844 12.1679 1.94243 12.0986 1.9835C11.6773 2.23338 11.2228 2.41295 10.7462 2.51796C10.2661 2.04884 9.61401 1.78186 8.93991 1.78186C7.517 1.78186 6.35936 2.93946 6.35936 4.36233C6.35936 4.47439 6.36646 4.58584 6.3805 4.69573C4.6148 4.5407 2.97327 3.67284 1.84603 2.29011C1.80586 2.24082 1.74397 2.21426 1.68061 2.21934C1.61721 2.2243 1.56025 2.26005 1.52822 2.315C1.29959 2.7073 1.17873 3.15599 1.17873 3.6125C1.17873 4.23429 1.40072 4.82424 1.79287 5.28521C1.67363 5.24392 1.55792 5.1923 1.44749 5.131C1.3882 5.098 1.31584 5.0985 1.25694 5.13228C1.198 5.16605 1.16104 5.22817 1.15949 5.29607C1.15922 5.30751 1.15922 5.31895 1.15922 5.33054C1.15922 6.25866 1.65874 7.09426 2.42245 7.54969C2.35684 7.54314 2.29127 7.53364 2.22612 7.52119C2.15896 7.50835 2.0899 7.53189 2.04461 7.58311C1.99924 7.6343 1.98423 7.70565 2.00513 7.77079C2.28782 8.65335 3.01562 9.30251 3.89546 9.50043C3.16572 9.95749 2.33121 10.1969 1.45517 10.1969C1.27237 10.1969 1.08853 10.1862 0.908609 10.1649C0.819229 10.1542 0.733765 10.207 0.703325 10.292C0.672886 10.377 0.705148 10.4719 0.781189 10.5206C1.9066 11.2422 3.20791 11.6236 4.54435 11.6236C7.17162 11.6236 8.81517 10.3847 9.73127 9.34536C10.8736 8.0494 11.5288 6.33404 11.5288 4.63915C11.5288 4.56835 11.5277 4.49684 11.5255 4.42557C11.9762 4.08601 12.3643 3.67505 12.68 3.20271C12.728 3.13098 12.7228 3.03617 12.6672 2.97013C12.6117 2.90406 12.5193 2.88269 12.4403 2.91767Z" fill="#131839"/>
</g>
</g>
<defs>
<clipPath id="clip0_1_98">
<rect width="12.0208" height="12.0208" fill="white" transform="translate(0.692017 0.692627)"/>
</clipPath>
</defs>
</svg>
